<svg width="32" height="32" viewBox="0 0 32 32" fill="none" xmlns="http://www.w3.org/2000/svg">
<rect width="32" height="32" rx="8" fill="#1A1A1A"/>
<path d="M9 22.7614V9.23864H10.7737V22.7614H9Z" fill="white"/>
<path d="M23.9807 22.7614H22.6505L22.5155 20.6335C21.7058 22.2443 20.2599 23 18.5248 23C14.9774 23 12.7218 20.3551 12.7218 16.0199C12.7218 11.7045 14.9774 9 18.679 9C21.2045 9 23.3638 10.4318 24 13.1364H22.1492C21.6672 11.4858 20.2984 10.571 18.6211 10.571C16.057 10.571 14.534 12.6392 14.534 16.0199C14.534 19.4006 16.0763 21.429 18.679 21.429C20.6262 21.429 22.1685 20.196 22.2842 17.2926H18.9296V15.8409H23.9807V22.7614Z" fill="white"/>
</svg>
